/* XPM */
static const char * c4x_xpm[] = {
"32 32 651 2",
"  	c None",
". 	c #8D8B9D",
"+ 	c #BEBAD5",
"@ 	c #C7C4DF",
"# 	c #C3BFDD",
"$ 	c #B7B3CD",
"% 	c #E4E1FF",
"& 	c #E2DFFD",
"* 	c #89879A",
"= 	c #B2AEC8",
"- 	c #C9C6E2",
"; 	c #C8C4E0",
"> 	c #B5B3CD",
", 	c #F6F2FF",
"' 	c #FBF7FF",
") 	c #EFECFF",
"! 	c #E9E5FF",
"~ 	c #E1DDFE",
"{ 	c #D1CDEC",
"] 	c #9896B3",
"^ 	c #C5C1E4",
"/ 	c #E2DEFE",
"( 	c #CECBE6",
"_ 	c #B0ADC7",
": 	c #C2BFDC",
"< 	c #DAD6F6",
"[ 	c #DDD9F8",
"} 	c #EEEBFF",
"| 	c #EBE7FF",
"1 	c #BDBBD3",
"2 	c #CAC7E2",
"3 	c #FFFEFF",
"4 	c #FFFBFF",
"5 	c #F7F4FF",
"6 	c #F3EFFF",
"7 	c #E8E5FF",
"8 	c #E7E4FF",
"9 	c #DAD7F6",
"0 	c #D2CEEF",
"a 	c #B9B6D2",
"b 	c #65627B",
"c 	c #8582A0",
"d 	c #AAA7C6",
"e 	c #CAC7E3",
"f 	c #C8C5DE",
"g 	c #C4C1DA",
"h 	c #9291A6",
"i 	c #A29FB7",
"j 	c #C0BDD9",
"k 	c #C1BEDC",
"l 	c #BFBBD9",
"m 	c #C4C1DE",
"n 	c #CBC7E4",
"o 	c #D3D0EC",
"p 	c #CBC9E3",
"q 	c #B8B5CB",
"r 	c #BCB9D1",
"s 	c #FCF8FF",
"t 	c #FFFDFF",
"u 	c #FAF7FF",
"v 	c #EAE7FF",
"w 	c #ECE9FF",
"x 	c #E6E2FF",
"y 	c #DCD8F8",
"z 	c #D0CDEC",
"A 	c #D5D1F2",
"B 	c #5E5C73",
"C 	c #8F8CA7",
"D 	c #C1BDDB",
"E 	c #D0CCED",
"F 	c #828095",
"G 	c #696774",
"H 	c #868496",
"I 	c #9491A7",
"J 	c #9B98B0",
"K 	c #A8A5C0",
"L 	c #B9B6D3",
"M 	c #BAB9D6",
"N 	c #A6A6C1",
"O 	c #ACABC3",
"P 	c #A5A3B7",
"Q 	c #C9C6E0",
"R 	c #E8E4FF",
"S 	c #FDFAFF",
"T 	c #F9F5FF",
"U 	c #D9D6F6",
"V 	c #D6D3F3",
"W 	c #E3E0FF",
"X 	c #E1DEFD",
"Y 	c #D8D5F4",
"Z 	c #D3D0EF",
"` 	c #D4D0F2",
" .	c #A7A3BE",
"..	c #817D96",
"+.	c #B7B6DC",
"@.	c #7E7B94",
"#.	c #8B899D",
"$.	c #A4A1B6",
"%.	c #656371",
"&.	c #706E7E",
"*.	c #9290A6",
"=.	c #A1A2BD",
"-.	c #919AB8",
";.	c #6D6B7F",
">.	c #533638",
",.	c #7C7889",
"'.	c #D8D4F2",
").	c #D6D2F2",
"!.	c #BDB9D8",
"~.	c #BEBADA",
"{.	c #C8C5E5",
"].	c #CECBEA",
"^.	c #E5E2FF",
"/.	c #D6D2F1",
"(.	c #D1CDEF",
"_.	c #A5A0BD",
":.	c #4B280D",
"<.	c #514A56",
"[.	c #37394A",
"}.	c #A6A4C0",
"|.	c #DEDBFA",
"1.	c #C3C0D9",
"2.	c #787787",
"3.	c #575664",
"4.	c #594850",
"5.	c #863F36",
"6.	c #C2462C",
"7.	c #9F4B3E",
"8.	c #A3AACB",
"9.	c #C7C3E3",
"0.	c #BBB7D6",
"a.	c #BDBAD9",
"b.	c #BAB6D6",
"c.	c #B4B1D1",
"d.	c #B3B0CE",
"e.	c #D5D2EF",
"f.	c #E3E0FD",
"g.	c #F4F1FF",
"h.	c #D9D5F4",
"i.	c #D0CCEC",
"j.	c #C6C3E4",
"k.	c #38200B",
"l.	c #361300",
"m.	c #1B0B00",
"n.	c #4A4B5C",
"o.	c #A09FBC",
"p.	c #E1DDFD",
"q.	c #D6D4EF",
"r.	c #7E6970",
"s.	c #9B7275",
"t.	c #C55A48",
"u.	c #DF5336",
"v.	c #91311D",
"w.	c #5C5E74",
"x.	c #B2B0D0",
"y.	c #B8B4D4",
"z.	c #BBB8D7",
"A.	c #B0ACCB",
"B.	c #A19EBA",
"C.	c #C3C0DB",
"D.	c #F0EDFF",
"E.	c #C5C1E0",
"F.	c #D2CEED",
"G.	c #E6E3FF",
"H.	c #D8D4F4",
"I.	c #CFCBEC",
"J.	c #A09DBB",
"K.	c #6C6C86",
"L.	c #45352E",
"M.	c #441900",
"N.	c #331800",
"O.	c #3A3740",
"P.	c #8A8BA7",
"Q.	c #C8C6E2",
"R.	c #C6C5E0",
"S.	c #D8E2FF",
"T.	c #997F8C",
"U.	c #C4492F",
"V.	c #B2422B",
"W.	c #3D2324",
"X.	c #898DAA",
"Y.	c #ADAAC8",
"Z.	c #A09CBA",
"`.	c #9290A8",
" +	c #B2B0C8",
".+	c #D5D1F1",
"++	c #A7A3C1",
"@+	c #EAE6FF",
"#+	c #D3D0F0",
"$+	c #726F87",
"%+	c #62627B",
"&+	c #403534",
"*+	c #3F1A00",
"=+	c #482500",
"-+	c #362B27",
";+	c #7C7C95",
">+	c #C2BEE0",
",+	c #AAA9C7",
"'+	c #888193",
")+	c #9C4F42",
"!+	c #BE472E",
"~+	c #7C2C1C",
"{+	c #3A343F",
"]+	c #7B7C96",
"^+	c #848298",
"/+	c #A3A0B7",
"(+	c #9794B1",
"_+	c #BEBBD7",
":+	c #F2EEFF",
"<+	c #CFCCEB",
"[+	c #DCD9F9",
"}+	c #A5A2BF",
"|+	c #706E84",
"1+	c #73718A",
"2+	c #5D5E76",
"3+	c #56190D",
"4+	c #3E1C00",
"5+	c #421D00",
"6+	c #473E3F",
"7+	c #7A7C9B",
"8+	c #7A7A95",
"9+	c #DEE0FF",
"0+	c #C8CCE9",
"a+	c #A96D6A",
"b+	c #B7452D",
"c+	c #5B190B",
"d+	c #474857",
"e+	c #9A9AB3",
"f+	c #CAC7E4",
"g+	c #C9C6E5",
"h+	c #8F8BA8",
"i+	c #9B98B2",
"j+	c #DFDCF9",
"k+	c #E0DCFB",
"l+	c #E5E1FF",
"m+	c #7F7C94",
"n+	c #79768E",
"o+	c #5D5E74",
"p+	c #7D1D0E",
"q+	c #451801",
"r+	c #462500",
"s+	c #542800",
"t+	c #44270B",
"u+	c #4D4242",
"v+	c #9192B2",
"w+	c #DCDDFE",
"x+	c #DDE3FF",
"y+	c #AC8D97",
"z+	c #8F3825",
"A+	c #4B2813",
"B+	c #695F65",
"C+	c #8B89A3",
"D+	c #83809B",
"E+	c #858299",
"F+	c #C5C2DD",
"G+	c #E0DDFB",
"H+	c #E4E0FE",
"I+	c #F7F3FF",
"J+	c #A4A0BD",
"K+	c #8A869F",
"L+	c #8B88A1",
"M+	c #626176",
"N+	c #821E0C",
"O+	c #6E1D0E",
"P+	c #3A1500",
"Q+	c #3E2100",
"R+	c #643402",
"S+	c #5F3200",
"T+	c #533C2C",
"U+	c #787991",
"V+	c #BFBFE1",
"W+	c #DEE2FF",
"X+	c #9591A0",
"Y+	c #685242",
"Z+	c #8A8087",
"`+	c #454452",
" @	c #6E6C80",
".@	c #A3A0B8",
"+@	c #D2CEEC",
"@@	c #D6D3F0",
"#@	c #F9F6FF",
"$@	c #B6B3D1",
"%@	c #8B88A2",
"&@	c #9A97B2",
"*@	c #878BA6",
"=@	c #8A2917",
"-@	c #872312",
";@	c #791F11",
">@	c #3F1401",
",@	c #341E00",
"'@	c #653807",
")@	c #793E07",
"!@	c #6B4017",
"~@	c #70666E",
"{@	c #9C9EBD",
"]@	c #BEBED8",
"^@	c #B8B5CD",
"/@	c #D9D8F8",
"(@	c #6E6979",
"_@	c #3A373F",
":@	c #87869F",
"<@	c #BCB9D7",
"[@	c #D0CDE9",
"}@	c #D2CEEE",
"|@	c #86839C",
"1@	c #A39FBB",
"2@	c #9498B3",
"3@	c #9D3220",
"4@	c #992711",
"5@	c #8B2513",
"6@	c #7E2012",
"7@	c #431502",
"8@	c #341B00",
"9@	c #653A09",
"0@	c #88480F",
"a@	c #7E430E",
"b@	c #5E4332",
"c@	c #9597B4",
"d@	c #DDDAFB",
"e@	c #BAB7D7",
"f@	c #64525A",
"g@	c #100000",
"h@	c #291F24",
"i@	c #7A7B92",
"j@	c #B8B7D4",
"k@	c #7F7C96",
"l@	c #ACA9C7",
"m@	c #8F99B6",
"n@	c #9E493F",
"o@	c #AC290F",
"p@	c #9C2B16",
"q@	c #8E2614",
"r@	c #4C1306",
"s@	c #341700",
"t@	c #5D3207",
"u@	c #854B14",
"v@	c #854A12",
"w@	c #9E8D92",
"x@	c #B1B4DD",
"y@	c #80819C",
"z@	c #B2B2CC",
"A@	c #8D8294",
"B@	c #340A00",
"C@	c #3A0F0B",
"D@	c #4B4B5C",
"E@	c #83809A",
"F@	c #6A667C",
"G@	c #A6A2BF",
"H@	c #9BA2C1",
"I@	c #996467",
"J@	c #AB2308",
"K@	c #B2321A",
"L@	c #AA311A",
"M@	c #912815",
"N@	c #61160B",
"O@	c #351B0E",
"P@	c #331900",
"Q@	c #552A03",
"R@	c #7D410F",
"S@	c #8C4D11",
"T@	c #7F5B42",
"U@	c #524E58",
"V@	c #7A819E",
"W@	c #847C84",
"X@	c #552900",
"Y@	c #4A1A05",
"Z@	c #414357",
"`@	c #6C6A7F",
" #	c #7C7A90",
".#	c #88859D",
"+#	c #9A9BB8",
"@#	c #968191",
"##	c #A12208",
"$#	c #AF3119",
"%#	c #B3331B",
"&#	c #962915",
"*#	c #6A3520",
"=#	c #795942",
"-#	c #5B4130",
";#	c #271200",
">#	c #472401",
",#	c #733F10",
"'#	c #8A4A10",
")#	c #834D1D",
"!#	c #6B4624",
"~#	c #81450A",
"{#	c #773D00",
"]#	c #512800",
"^#	c #66667C",
"/#	c #9693AD",
"(#	c #89859F",
"_#	c #A09EB9",
":#	c #8E91AB",
"<#	c #992D1A",
"[#	c #9F2812",
"}#	c #972713",
"|#	c #723721",
"1#	c #815F44",
"2#	c #805D45",
"3#	c #493224",
"4#	c #41130A",
"5#	c #3B1000",
"6#	c #3D1D00",
"7#	c #66380D",
"8#	c #804B13",
"9#	c #8D5016",
"0#	c #8C4C17",
"a#	c #753E0B",
"b#	c #431B00",
"c#	c #706E80",
"d#	c #9896B0",
"e#	c #9F9CB8",
"f#	c #8D95B0",
"g#	c #814743",
"h#	c #8A1904",
"i#	c #6E351F",
"j#	c #846146",
"k#	c #866048",
"l#	c #4D3726",
"m#	c #5F1E10",
"n#	c #892413",
"o#	c #681B0F",
"p#	c #381001",
"q#	c #381B00",
"r#	c #532D07",
"s#	c #673B0D",
"t#	c #744112",
"u#	c #63370B",
"v#	c #3E1900",
"w#	c #7A7688",
"x#	c #807F96",
"y#	c #87849C",
"z#	c #898CA5",
"A#	c #786773",
"B#	c #76331A",
"C#	c #876246",
"D#	c #8B644B",
"E#	c #583E2B",
"F#	c #622212",
"G#	c #A42F1A",
"H#	c #AB331D",
"I#	c #882614",
"J#	c #6C1C10",
"K#	c #4B1507",
"L#	c #220E00",
"M#	c #341800",
"N#	c #552E08",
"O#	c #623208",
"P#	c #6D6368",
"Q#	c #6A687D",
"R#	c #7A7B91",
"S#	c #65534B",
"T#	c #865C3E",
"U#	c #8F664C",
"V#	c #5E442F",
"W#	c #4C1D10",
"X#	c #972916",
"Y#	c #B5361E",
"Z#	c #B9371F",
"`#	c #AD331D",
" $	c #932916",
".$	c #701D10",
"+$	c #56170B",
"@$	c #311300",
"#$	c #422600",
"$$	c #6B3809",
"%$	c #5A2500",
"&$	c #55310F",
"*$	c #68534D",
"=$	c #86593A",
"-$	c #8E644A",
";$	c #644631",
">$	c #471D10",
",$	c #7F200F",
"'$	c #A82F19",
")$	c #B6351D",
"!$	c #B8361D",
"~$	c #B5351D",
"{$	c #A52F19",
"]$	c #7A2111",
"^$	c #661A0F",
"/$	c #381000",
"($	c #2C1500",
"_$	c #683C0F",
":$	c #6F390A",
"<$	c #461B00",
"[$	c #5C391D",
"}$	c #8B5F40",
"|$	c #91664B",
"1$	c #68452E",
"2$	c #45281F",
"3$	c #6D1504",
"4$	c #9C2913",
"5$	c #A92E18",
"6$	c #B6331B",
"7$	c #B9341C",
"8$	c #B5331B",
"9$	c #A92F19",
"0$	c #9B2B16",
"a$	c #791C0B",
"b$	c #4C1C11",
"c$	c #281000",
"d$	c #572903",
"e$	c #7D4715",
"f$	c #75400B",
"g$	c #431D00",
"h$	c #280D00",
"i$	c #57371E",
"j$	c #8C6043",
"k$	c #90664C",
"l$	c #6E4931",
"m$	c #43332D",
"n$	c #5C6179",
"o$	c #8A4F4F",
"p$	c #9F2006",
"q$	c #A82B14",
"r$	c #AC2F18",
"s$	c #B6321A",
"t$	c #B33119",
"u$	c #A3270F",
"v$	c #7D2617",
"w$	c #4F495A",
"x$	c #30251C",
"y$	c #3B1700",
"z$	c #6C3E0E",
"A$	c #864E18",
"B$	c #82440F",
"C$	c #5A2600",
"D$	c #3B1400",
"E$	c #885D40",
"F$	c #92684D",
"G$	c #78523B",
"H$	c #442D1F",
"I$	c #57566B",
"J$	c #9091AD",
"K$	c #985757",
"L$	c #AA260C",
"M$	c #AA250B",
"N$	c #AE2E17",
"O$	c #A82B13",
"P$	c #A72309",
"Q$	c #902E1D",
"R$	c #816E7E",
"S$	c #5E637C",
"T$	c #504E60",
"U$	c #311700",
"V$	c #512801",
"W$	c #7E4715",
"X$	c #8A5218",
"Y$	c #884C11",
"Z$	c #622C00",
"`$	c #401700",
" %	c #875C3F",
".%	c #966A4F",
"+%	c #7A533C",
"@%	c #4A301D",
"#%	c #474758",
"$%	c #838099",
"%%	c #9191AD",
"&%	c #979DBC",
"*%	c #9C8495",
"=%	c #A34A40",
"-%	c #A52005",
";%	c #9E240C",
">%	c #9A6365",
",%	c #908FA9",
"'%	c #8B8FAB",
")%	c #716F86",
"!%	c #55566E",
"~%	c #220F00",
"{%	c #3B1B00",
"]%	c #653A0A",
"^%	c #804C16",
"/%	c #845116",
"(%	c #894914",
"_%	c #6F3301",
":%	c #552600",
"<%	c #82583C",
"[%	c #94694E",
"}%	c #7A543D",
"|%	c #4A301E",
"1%	c #646077",
"2%	c #85829C",
"3%	c #9794AF",
"4%	c #9599B7",
"5%	c #A3AACA",
"6%	c #9F8A9B",
"7%	c #91869B",
"8%	c #949BBA",
"9%	c #9392AE",
"0%	c #9794B0",
"a%	c #706C83",
"b%	c #290F00",
"c%	c #4B2600",
"d%	c #754511",
"e%	c #824B16",
"f%	c #8A4E19",
"g%	c #874C14",
"h%	c #763D04",
"i%	c #6A3300",
"j%	c #7A5338",
"k%	c #93684D",
"l%	c #7D573F",
"m%	c #4D3121",
"n%	c #918EAA",
"o%	c #9B98B4",
"p%	c #9895B1",
"q%	c #9897B4",
"r%	c #9C9BB8",
"s%	c #9693AE",
"t%	c #9693B0",
"u%	c #6F6C85",
"v%	c #301700",
"w%	c #573005",
"x%	c #784613",
"y%	c #834C17",
"z%	c #874D18",
"A%	c #834A14",
"B%	c #80450B",
"C%	c #775136",
"D%	c #95694E",
"E%	c #7E5740",
"F%	c #513422",
"G%	c #7C7993",
"H%	c #9E9BB8",
"I%	c #9996B1",
"J%	c #9995B1",
"K%	c #87849E",
"L%	c #6F6D83",
"M%	c #250F00",
"N%	c #462100",
"O%	c #6D3C0F",
"P%	c #7F4A15",
"Q%	c #864A17",
"R%	c #8F5018",
"S%	c #864A13",
"T%	c #92664B",
"U%	c #875D45",
"V%	c #4B3020",
"W%	c #75728C",
"X%	c #9591B0",
"Y%	c #76738C",
"Z%	c #2E1400",
"`%	c #4B2801",
" &	c #714111",
".&	c #894D17",
"+&	c #814816",
"@&	c #5C3E2C",
"#&	c #230E00",
"$&	c #321800",
"%&	c #593307",
"      .                                           + @ # $       ",
"    % & *                   = - ;             > , ' ) ! ~ {     ",
"  ] ^ / (               _ : < [ } | 1     2 3 4 5 6 7 8 9 0 a   ",
"  b c d e f g h     i j k l m n o p q r | s t u v | w x y z A   ",
"      B C D E F G H I J K L M N O P Q / R S T x U V W X Y Z `  .",
"        ..+.@.#.$.%.&.*.=.-.;.>.,.'.% 9 v ).!.~.{.].^.7 /.A (._.",
"        :.<.[.}.|.1.2.3.4.5.6.7.8.9.0.a.b.c.d.e.f.9 g.! h.i.j.  ",
"        k.l.m.n.o.p.q.r.s.t.u.v.w.x.y.z.A.B.C.D.E.F.u G.H.I.J.  ",
"        K.L.M.N.O.P.Q.R.S.T.U.V.W.X.Y.Z.`. +, .+++@+, < #+j.    ",
"        $+%+&+*+=+-+;+>+,+'+)+!+~+{+]+^+/+v .+(+_+:+8 <+[+}+    ",
"        |+1+2+3+4+5+6+7+8+9+0+a+b+c+d+e+f+g+h+i+j+w /.k+l+      ",
"        m+n+o+p+q+r+s+t+u+v+w+x+y+z+A+B+C+D+E+F+G+H+7 I+J+      ",
"        K+L+M+N+O+P+Q+R+S+T+U+V+W+X+Y+Z+`+ @.@+@@@! #@$@        ",
"        %@&@*@=@-@;@>@,@'@)@!@~@{@]@^@/@(@_@:@<@[@| }@          ",
"        |@1@2@3@4@5@6@7@8@9@0@a@b@c@d@e@f@g@h@i@j@I.k@          ",
"          l@m@n@o@p@q@;@r@s@t@u@v@w@x@y@z@A@B@C@D@E@F@          ",
"          G@H@I@J@K@L@M@N@O@P@Q@R@S@T@U@V@W@X@Y@Z@`@ #          ",
"          .#+#@###$#%#&#*#=#-#;#>#,#'#)#!#~#{#]#^#/#            ",
"          (#_#:#<#[#}#|#1#2#3#4#5#6#7#8#9#0#a#b#c#d#            ",
"            e#f#g#h#i#j#k#l#m#n#o#p#q#r#s#t#u#v#w#x#            ",
"            y#z#A#B#C#D#E#F#G#H#I#J#K#L#M#N#O#b#P#              ",
"            Q#R#S#T#U#V#W#X#Y#Z#`# $.$+$@$#$$$%$&$              ",
"              *$=$-$;$>$,$'$)$!$~${$]$^$/$($_$:$<$              ",
"            [$}$|$1$2$3$4$5$6$7$8$9$0$a$b$c$d$e$f$g$h$          ",
"          i$j$k$l$m$n$o$p$q$r$s$t$r$u$v$w$x$y$z$A$B$C$D$        ",
"          E$F$G$H$I$y@J$K$L$M$N$O$P$Q$R$S$T$U$V$W$X$Y$Z$`$      ",
"         %.%+%@%  #%$%%%&%*%=%-%;%>%,%'%)%!%~%{%]%^%/%(%_%:%    ",
"      <%[%}%|%      1%2%3%4%5%6%7%8%9%0%a%    b%c%d%e%f%g%h%i%  ",
"    j%k%l%m%            n%o%p%q%r%s%t%u%        v%w%x%y%z%A%B%  ",
"  C%D%E%F%                G%H%I%J%K%L%          M%N%O%P%Q%R%S%  ",
"  T%U%V%                    W%X%Y%                Z%`% &.&+&    ",
"  @&V%                                            #&$&%&        "};
