/* XPM */
static const char * c4x_xpm[] = {
"32 32 196 2",
"  	c None",
". 	c #252525",
"+ 	c #5B5B5B",
"@ 	c #707070",
"# 	c #838383",
"$ 	c #8E8E8E",
"% 	c #949494",
"& 	c #929292",
"* 	c #808080",
"= 	c #717171",
"- 	c #5C5C5C",
"; 	c #B1B1B1",
"> 	c #D5D5D5",
", 	c #DDDDDD",
"' 	c #D0D0D0",
") 	c #CCCCCC",
"! 	c #CACACA",
"~ 	c #C8C8C8",
"{ 	c #C9C9C9",
"] 	c #CECECE",
"^ 	c #757575",
"/ 	c #535353",
"( 	c #B8B8B8",
"_ 	c #E0E0E0",
": 	c #D2D2D2",
"< 	c #C4C4C4",
"[ 	c #BCBCBC",
"} 	c #B6B6B6",
"| 	c #B4B4B4",
"1 	c #B5B5B5",
"2 	c #B7B7B7",
"3 	c #B3B3B3",
"4 	c #4C4C4C",
"5 	c #1C1C1C",
"6 	c #BDBDBD",
"7 	c #E2E2E2",
"8 	c #B2B2B2",
"9 	c #B0B0B0",
"0 	c #717170",
"a 	c #222222",
"b 	c #5E5E5E",
"c 	c #BFBFBF",
"d 	c #CFCFCF",
"e 	c #CDCDCD",
"f 	c #BABABA",
"g 	c #ACACAC",
"h 	c #2F2F2F",
"i 	c #6E6E6E",
"j 	c #E6E6E6",
"k 	c #C3C3C3",
"l 	c #BEBEBE",
"m 	c #969696",
"n 	c #666666",
"o 	c #565656",
"p 	c #505050",
"q 	c #5A5A5A",
"r 	c #454545",
"s 	c #E4E4E4",
"t 	c #DEDEDE",
"u 	c #D1D1D1",
"v 	c #AFAFAF",
"w 	c #777777",
"x 	c #444444",
"y 	c #313131",
"z 	c #1D1D1D",
"A 	c #0E0E0E",
"B 	c #060606",
"C 	c #000000",
"D 	c #121212",
"E 	c #151515",
"F 	c #131313",
"G 	c #353535",
"H 	c #E5E5E5",
"I 	c #C0C0C0",
"J 	c #AEAEAE",
"K 	c #C2C2C2",
"L 	c #767676",
"M 	c #323232",
"N 	c #0D0D0D",
"O 	c #959595",
"P 	c #7B7B7B",
"Q 	c #525252",
"R 	c #656565",
"S 	c #A4A4A4",
"T 	c #E1E1E1",
"U 	c #E9E9E9",
"V 	c #EAEAEA",
"W 	c #606060",
"X 	c #3F3F3F",
"Y 	c #A1A1A1",
"Z 	c #E2E1E1",
"` 	c #ADADAD",
" .	c #DCDCDC",
"..	c #DBDBDB",
"+.	c #DADADA",
"@.	c #BBBBBB",
"#.	c #474747",
"$.	c #343434",
"%.	c #DFDFDF",
"&.	c #A7A7A7",
"*.	c #575757",
"=.	c #D4D4D4",
"-.	c #D6D6D6",
";.	c #D9D9D9",
">.	c #D0D1D1",
",.	c #6E6F6E",
"'.	c #A5A5A5",
").	c #858585",
"!.	c #737373",
"~.	c #5D5D5D",
"{.	c #979797",
"].	c #C5C5C5",
"^.	c #909090",
"/.	c #333333",
"(.	c #202020",
"_.	c #BDBCBC",
":.	c #A5A7A7",
"<.	c #3F3F40",
"[.	c #343433",
"}.	c #1D1C1C",
"|.	c #0F0F0F",
"1.	c #070707",
"2.	c #A6A6A6",
"3.	c #B9B9B9",
"4.	c #555555",
"5.	c #B1B1B0",
"6.	c #8D8E8F",
"7.	c #29292A",
"8.	c #7E7E7E",
"9.	c #2A2A2A",
"0.	c #AAAAAA",
"a.	c #ABABAB",
"b.	c #7C7C7D",
"c.	c #393A3B",
"d.	c #A3A3A3",
"e.	c #2C2C2C",
"f.	c #B6B6B5",
"g.	c #9D9D9D",
"h.	c #A8A8A8",
"i.	c #858586",
"j.	c #6C6C6C",
"k.	c #5F5E5E",
"l.	c #5F5F5F",
"m.	c #676767",
"n.	c #828282",
"o.	c #848484",
"p.	c #2E2E2E",
"q.	c #4B4B4B",
"r.	c #141313",
"s.	c #C7C7C7",
"t.	c #898989",
"u.	c #8D8D8D",
"v.	c #282828",
"w.	c #7F7F7F",
"x.	c #3E3E3E",
"y.	c #A9A9A9",
"z.	c #747474",
"A.	c #464646",
"B.	c #939393",
"C.	c #3C3C3C",
"D.	c #9F9F9F",
"E.	c #878787",
"F.	c #A2A2A2",
"G.	c #262626",
"H.	c #585858",
"I.	c #040404",
"J.	c #1A1A1A",
"K.	c #191919",
"L.	c #868686",
"M.	c #9A9A9A",
"N.	c #4E4E4E",
"O.	c #1B1B1B",
"P.	c #0C0C0C",
"Q.	c #3D3D3D",
"R.	c #616161",
"S.	c #8B8B8B",
"T.	c #1E1E1E",
"U.	c #0B0B0B",
"V.	c #030303",
"W.	c #080808",
"X.	c #0A0A0A",
"Y.	c #595959",
"Z.	c #787878",
"`.	c #6F6F6F",
" +	c #696969",
".+	c #CBCBCB",
"++	c #3A3A3A",
"@+	c #818181",
"#+	c #C1C1C1",
"$+	c #9E9E9E",
"%+	c #6B6B6B",
"&+	c #515151",
"*+	c #414141",
"=+	c #404040",
"-+	c #383838",
";+	c #242424",
"                                                                ",
"                                . + @ # $ % & $ * = -           ",
"                          * ; > , > ' ) ! ~ ~ { ! ] { ^         ",
"                    / ( _ : < [ ( } | 1 1 1 | 1 1 2 3 4         ",
"                5 6 7 { [ 1 | | 3 8 ; 3 1 2 2 2 } 9 0 a         ",
"              b 7 ! 2 8 3 3 9 c ~ d e { 9 } } ; f g h           ",
"            i j k 2 } 1 9 ) , : l m & n o p / q + r 5           ",
"          - s c 8 3 9 l t u v w x y z A B C C D E F             ",
"        G H I 3 ; J ! _ K L M N C     O v < f P                 ",
"        > < 3 3 3 ! , 9 Q R S d T U V U s 7 9 W X               ",
"      Y : 1 | | 6 Z ` o f j _ ,  .....+. . .@.= #.              ",
"    $.%.1 g g &.t I *.( =.-.;.;.> ] d +. .;.@.n G               ",
"    g k g ` J ( >.,.w '.% ).!.W p ~.{.) ].].^./.5               ",
"  (., 2 ; 8 8 _.:.<.[.}.E |.1.    o 2.' =.3.4.5                 ",
"  ^ e 9 v v J 5.6.7.              * u e 8 8.9.y % i             ",
"  O 6 0.a.g ` 9 b.c.            + d.{ ; 2./ e.% ~ f.y           ",
"  g.| h.0.a.g v ` i.j.k.l.m.8.n.P f } 8 o.p.q.v 2 ; {.r.        ",
"  o.( g ` J 9 J ` ; [ s.! ~ ~ t.u.@.g Y Q v.w.1 1 2 0.n         ",
"  x.f h.h.y.h.&.h.0.a.g v 3 '.z.a.3 g # h A.a.} 2 f B.C.        ",
"    m.D.'.h.h.0.` J g g J ; t.E.c 9 F.Q G.w.( } 8 Y H.E         ",
"    I.r * D.h.a.a.a.J J ` &.w g ~ l $ y A.&.d.o.*.y J.          ",
"        K.C.n L.M.&.` ; 2 B.w.l @.8 W 9.N.N.y O.P.              ",
"            A O.e.Q.N.q l.R.M.l 3 S.y T.F U.                    ",
"                  V.W.X.(.i [ [ a.Y.T.A                         ",
"                        - O < 1 t.h K.                          ",
"                        @ } l y.+ .                             ",
"                      - $ s.l ` Z.`.# & M.Y '.a.9 | 3.2.@       ",
"                       +D..+! d  .s s H j H H H T T T 2.q ++    ",
"                      *.@+6 #+[ @.f 6 I ].~ ~ ].s..+s.$+- Q.    ",
"                        %+L + &+q.A.*+=+=+X Q.++-+++++M a ;+    ",
"                                                                ",
"                                                                "};
